<svg class="rich-terminal" viewBox="0 0 1482 757.5999999999999" xmlns="http://www.w3.org/2000/svg">
    <!-- Generated with Rich https://www.textualize.io -->
    <style>

    @font-face {
        font-family: "Fira Code";
        src: local("FiraCode-Regular"),
                url("https://cdnjs.cloudflare.com/ajax/libs/firacode/6.2.0/woff2/FiraCode-Regular.woff2") format("woff2"),
                url("https://cdnjs.cloudflare.com/ajax/libs/firacode/6.2.0/woff/FiraCode-Regular.woff") format("woff");
        font-style: normal;
        font-weight: 400;
    }
    @font-face {
        font-family: "Fira Code";
        src: local("FiraCode-Bold"),
                url("https://cdnjs.cloudflare.com/ajax/libs/firacode/6.2.0/woff2/FiraCode-Bold.woff2") format("woff2"),
                url("https://cdnjs.cloudflare.com/ajax/libs/firacode/6.2.0/woff/FiraCode-Bold.woff") format("woff");
        font-style: bold;
        font-weight: 700;
    }

    .terminal-3837218806-matrix {
        font-family: Fira Code, monospace;
        font-size: 20px;
        line-height: 24.4px;
        font-variant-east-asian: full-width;
    }

    .terminal-3837218806-title {
        font-size: 18px;
        font-weight: bold;
        font-family: arial;
    }

    .terminal-3837218806-r1 { fill: #e0e0e0;font-weight: bold }
.terminal-3837218806-r2 { fill: #c5c8c6 }
.terminal-3837218806-r3 { fill: #e0e0e0 }
.terminal-3837218806-r4 { fill: #32a852;font-weight: bold }
.terminal-3837218806-r5 { fill: #a83a32;font-weight: bold }
.terminal-3837218806-r6 { fill: #32a852 }
.terminal-3837218806-r7 { fill: #ddedf9;font-weight: bold }
.terminal-3837218806-r8 { fill: #4ebf71 }
.terminal-3837218806-r9 { fill: #ffa62b;font-weight: bold }
.terminal-3837218806-r10 { fill: #495259 }
    </style>

    <defs>
    <clipPath id="terminal-3837218806-clip-terminal">
      <rect x="0" y="0" width="1463.0" height="706.5999999999999" />
    </clipPath>
    <clipPath id="terminal-3837218806-line-0">
    <rect x="0" y="1.5" width="1464" height="24.65"/>
            </clipPath>
<clipPath id="terminal-3837218806-line-1">
    <rect x="0" y="25.9" width="1464" height="24.65"/>
            </clipPath>
<clipPath id="terminal-3837218806-line-2">
    <rect x="0" y="50.3" width="1464" height="24.65"/>
            </clipPath>
<clipPath id="terminal-3837218806-line-3">
    <rect x="0" y="74.7" width="1464" height="24.65"/>
            </clipPath>
<clipPath id="terminal-3837218806-line-4">
    <rect x="0" y="99.1" width="1464" height="24.65"/>
            </clipPath>
<clipPath id="terminal-3837218806-line-5">
    <rect x="0" y="123.5" width="1464" height="24.65"/>
            </clipPath>
<clipPath id="terminal-3837218806-line-6">
    <rect x="0" y="147.9" width="1464" height="24.65"/>
            </clipPath>
<clipPath id="terminal-3837218806-line-7">
    <rect x="0" y="172.3" width="1464" height="24.65"/>
            </clipPath>
<clipPath id="terminal-3837218806-line-8">
    <rect x="0" y="196.7" width="1464" height="24.65"/>
            </clipPath>
<clipPath id="terminal-3837218806-line-9">
    <rect x="0" y="221.1" width="1464" height="24.65"/>
            </clipPath>
<clipPath id="terminal-3837218806-line-10">
    <rect x="0" y="245.5" width="1464" height="24.65"/>
            </clipPath>
<clipPath id="terminal-3837218806-line-11">
    <rect x="0" y="269.9" width="1464" height="24.65"/>
            </clipPath>
<clipPath id="terminal-3837218806-line-12">
    <rect x="0" y="294.3" width="1464" height="24.65"/>
            </clipPath>
<clipPath id="terminal-3837218806-line-13">
    <rect x="0" y="318.7" width="1464" height="24.65"/>
            </clipPath>
<clipPath id="terminal-3837218806-line-14">
    <rect x="0" y="343.1" width="1464" height="24.65"/>
            </clipPath>
<clipPath id="terminal-3837218806-line-15">
    <rect x="0" y="367.5" width="1464" height="24.65"/>
            </clipPath>
<clipPath id="terminal-3837218806-line-16">
    <rect x="0" y="391.9" width="1464" height="24.65"/>
            </clipPath>
<clipPath id="terminal-3837218806-line-17">
    <rect x="0" y="416.3" width="1464" height="24.65"/>
            </clipPath>
<clipPath id="terminal-3837218806-line-18">
    <rect x="0" y="440.7" width="1464" height="24.65"/>
            </clipPath>
<clipPath id="terminal-3837218806-line-19">
    <rect x="0" y="465.1" width="1464" height="24.65"/>
            </clipPath>
<clipPath id="terminal-3837218806-line-20">
    <rect x="0" y="489.5" width="1464" height="24.65"/>
            </clipPath>
<clipPath id="terminal-3837218806-line-21">
    <rect x="0" y="513.9" width="1464" height="24.65"/>
            </clipPath>
<clipPath id="terminal-3837218806-line-22">
    <rect x="0" y="538.3" width="1464" height="24.65"/>
            </clipPath>
<clipPath id="terminal-3837218806-line-23">
    <rect x="0" y="562.7" width="1464" height="24.65"/>
            </clipPath>
<clipPath id="terminal-3837218806-line-24">
    <rect x="0" y="587.1" width="1464" height="24.65"/>
            </clipPath>
<clipPath id="terminal-3837218806-line-25">
    <rect x="0" y="611.5" width="1464" height="24.65"/>
            </clipPath>
<clipPath id="terminal-3837218806-line-26">
    <rect x="0" y="635.9" width="1464" height="24.65"/>
            </clipPath>
<clipPath id="terminal-3837218806-line-27">
    <rect x="0" y="660.3" width="1464" height="24.65"/>
            </clipPath>
    </defs>

    <rect fill="#292929" stroke="rgba(255,255,255,0.35)" stroke-width="1" x="1" y="1" width="1480" height="755.6" rx="8"/><text class="terminal-3837218806-title" fill="#c5c8c6" text-anchor="middle" x="740" y="27">ModManagerApp</text>
            <g transform="translate(26,22)">
            <circle cx="0" cy="0" r="7" fill="#ff5f57"/>
            <circle cx="22" cy="0" r="7" fill="#febc2e"/>
            <circle cx="44" cy="0" r="7" fill="#28c840"/>
            </g>
        
    <g transform="translate(9, 41)" clip-path="url(#terminal-3837218806-clip-terminal)">
    <rect fill="#2d3740" x="0" y="1.5" width="402.6" height="24.65" shape-rendering="crispEdges"/><rect fill="#2d3740" x="402.6" y="1.5" width="134.2" height="24.65" shape-rendering="crispEdges"/><rect fill="#2d3740" x="536.8" y="1.5" width="146.4" height="24.65" shape-rendering="crispEdges"/><rect fill="#2d3740" x="683.2" y="1.5" width="134.2" height="24.65" shape-rendering="crispEdges"/><rect fill="#2d3740" x="817.4" y="1.5" width="122" height="24.65" shape-rendering="crispEdges"/><rect fill="#2d3740" x="939.4" y="1.5" width="463.6" height="24.65" shape-rendering="crispEdges"/><rect fill="#2d3740" x="1403" y="1.5" width="61" height="24.65" shape-rendering="crispEdges"/><rect fill="#2d3740" x="0" y="25.9" width="402.6" height="24.65" shape-rendering="crispEdges"/><rect fill="#1c1c1c" x="402.6" y="25.9" width="12.2" height="24.65" shape-rendering="crispEdges"/><rect fill="#1c1c1c" x="414.8" y="25.9" width="48.8" height="24.65" shape-rendering="crispEdges"/><rect fill="#1c1c1c" x="463.6" y="25.9" width="73.2" height="24.65" shape-rendering="crispEdges"/><rect fill="#1c1c1c" x="536.8" y="25.9" width="12.2" height="24.65" shape-rendering="crispEdges"/><rect fill="#1c1c1c" x="549" y="25.9" width="24.4" height="24.65" shape-rendering="crispEdges"/><rect fill="#1c1c1c" x="573.4" y="25.9" width="109.8" height="24.65" shape-rendering="crispEdges"/><rect fill="#1c1c1c" x="683.2" y="25.9" width="12.2" height="24.65" shape-rendering="crispEdges"/><rect fill="#1c1c1c" x="695.4" y="25.9" width="48.8" height="24.65" shape-rendering="crispEdges"/><rect fill="#1c1c1c" x="744.2" y="25.9" width="73.2" height="24.65" shape-rendering="crispEdges"/><rect fill="#1c1c1c" x="817.4" y="25.9" width="122" height="24.65" shape-rendering="crispEdges"/><rect fill="#1c1c1c" x="939.4" y="25.9" width="463.6" height="24.65" shape-rendering="crispEdges"/><rect fill="#1c1c1c" x="1403" y="25.9" width="61" height="24.65" shape-rendering="crispEdges"/><rect fill="#e7920d" x="0" y="50.3" width="402.6" height="24.65" shape-rendering="crispEdges"/><rect fill="#0178d4" x="402.6" y="50.3" width="12.2" height="24.65" shape-rendering="crispEdges"/><rect fill="#0178d4" x="414.8" y="50.3" width="48.8" height="24.65" shape-rendering="crispEdges"/><rect fill="#0178d4" x="463.6" y="50.3" width="73.2" height="24.65" shape-rendering="crispEdges"/><rect fill="#0178d4" x="536.8" y="50.3" width="12.2" height="24.65" shape-rendering="crispEdges"/><rect fill="#0178d4" x="549" y="50.3" width="24.4" height="24.65" shape-rendering="crispEdges"/><rect fill="#0178d4" x="573.4" y="50.3" width="109.8" height="24.65" shape-rendering="crispEdges"/><rect fill="#0178d4" x="683.2" y="50.3" width="12.2" height="24.65" shape-rendering="crispEdges"/><rect fill="#0178d4" x="695.4" y="50.3" width="61" height="24.65" shape-rendering="crispEdges"/><rect fill="#0178d4" x="756.4" y="50.3" width="61" height="24.65" shape-rendering="crispEdges"/><rect fill="#0178d4" x="817.4" y="50.3" width="122" height="24.65" shape-rendering="crispEdges"/><rect fill="#0178d4" x="939.4" y="50.3" width="463.6" height="24.65" shape-rendering="crispEdges"/><rect fill="#0178d4" x="1403" y="50.3" width="61" height="24.65" shape-rendering="crispEdges"/><rect fill="#2d3740" x="0" y="74.7" width="402.6" height="24.65" shape-rendering="crispEdges"/><rect fill="#1c1c1c" x="402.6" y="74.7" width="12.2" height="24.65" shape-rendering="crispEdges"/><rect fill="#1c1c1c" x="414.8" y="74.7" width="48.8" height="24.65" shape-rendering="crispEdges"/><rect fill="#1c1c1c" x="463.6" y="74.7" width="73.2" height="24.65" shape-rendering="crispEdges"/><rect fill="#1c1c1c" x="536.8" y="74.7" width="12.2" height="24.65" shape-rendering="crispEdges"/><rect fill="#1c1c1c" x="549" y="74.7" width="48.8" height="24.65" shape-rendering="crispEdges"/><rect fill="#1c1c1c" x="597.8" y="74.7" width="85.4" height="24.65" shape-rendering="crispEdges"/><rect fill="#1c1c1c" x="683.2" y="74.7" width="12.2" height="24.65" shape-rendering="crispEdges"/><rect fill="#1c1c1c" x="695.4" y="74.7" width="73.2" height="24.65" shape-rendering="crispEdges"/><rect fill="#1c1c1c" x="768.6" y="74.7" width="48.8" height="24.65" shape-rendering="crispEdges"/><rect fill="#1c1c1c" x="817.4" y="74.7" width="122" height="24.65" shape-rendering="crispEdges"/><rect fill="#1c1c1c" x="939.4" y="74.7" width="463.6" height="24.65" shape-rendering="crispEdges"/><rect fill="#1c1c1c" x="1403" y="74.7" width="61" height="24.65" shape-rendering="crispEdges"/><rect fill="#2d3740" x="0" y="99.1" width="402.6" height="24.65" shape-rendering="crispEdges"/><rect fill="#272727" x="402.6" y="99.1" width="12.2" height="24.65" shape-rendering="crispEdges"/><rect fill="#272727" x="414.8" y="99.1" width="48.8" height="24.65" shape-rendering="crispEdges"/><rect fill="#272727" x="463.6" y="99.1" width="73.2" height="24.65" shape-rendering="crispEdges"/><rect fill="#272727" x="536.8" y="99.1" width="12.2" height="24.65" shape-rendering="crispEdges"/><rect fill="#272727" x="549" y="99.1" width="24.4" height="24.65" shape-rendering="crispEdges"/><rect fill="#272727" x="573.4" y="99.1" width="109.8" height="24.65" shape-rendering="crispEdges"/><rect fill="#272727" x="683.2" y="99.1" width="12.2" height="24.65" shape-rendering="crispEdges"/><rect fill="#272727" x="695.4" y="99.1" width="73.2" height="24.65" shape-rendering="crispEdges"/><rect fill="#272727" x="768.6" y="99.1" width="48.8" height="24.65" shape-rendering="crispEdges"/><rect fill="#272727" x="817.4" y="99.1" width="122" height="24.65" shape-rendering="crispEdges"/><rect fill="#272727" x="939.4" y="99.1" width="463.6" height="24.65" shape-rendering="crispEdges"/><rect fill="#272727" x="1403" y="99.1" width="61" height="24.65" shape-rendering="crispEdges"/><rect fill="#2d3740" x="0" y="123.5" width="402.6" height="24.65" shape-rendering="crispEdges"/><rect fill="#1c1c1c" x="402.6" y="123.5" width="12.2" height="24.65" shape-rendering="crispEdges"/><rect fill="#1c1c1c" x="414.8" y="123.5" width="48.8" height="24.65" shape-rendering="crispEdges"/><rect fill="#1c1c1c" x="463.6" y="123.5" width="73.2" height="24.65" shape-rendering="crispEdges"/><rect fill="#1c1c1c" x="536.8" y="123.5" width="12.2" height="24.65" shape-rendering="crispEdges"/><rect fill="#1c1c1c" x="549" y="123.5" width="48.8" height="24.65" shape-rendering="crispEdges"/><rect fill="#1c1c1c" x="597.8" y="123.5" width="85.4" height="24.65" shape-rendering="crispEdges"/><rect fill="#1c1c1c" x="683.2" y="123.5" width="12.2" height="24.65" shape-rendering="crispEdges"/><rect fill="#1c1c1c" x="695.4" y="123.5" width="24.4" height="24.65" shape-rendering="crispEdges"/><rect fill="#1c1c1c" x="719.8" y="123.5" width="97.6" height="24.65" shape-rendering="crispEdges"/><rect fill="#1c1c1c" x="817.4" y="123.5" width="122" height="24.65" shape-rendering="crispEdges"/><rect fill="#1c1c1c" x="939.4" y="123.5" width="463.6" height="24.65" shape-rendering="crispEdges"/><rect fill="#1c1c1c" x="1403" y="123.5" width="61" height="24.65" shape-rendering="crispEdges"/><rect fill="#2d3740" x="0" y="147.9" width="402.6" height="24.65" shape-rendering="crispEdges"/><rect fill="#272727" x="402.6" y="147.9" width="12.2" height="24.65" shape-rendering="crispEdges"/><rect fill="#272727" x="414.8" y="147.9" width="48.8" height="24.65" shape-rendering="crispEdges"/><rect fill="#272727" x="463.6" y="147.9" width="73.2" height="24.65" shape-rendering="crispEdges"/><rect fill="#272727" x="536.8" y="147.9" width="12.2" height="24.65" shape-rendering="crispEdges"/><rect fill="#272727" x="549" y="147.9" width="48.8" height="24.65" shape-rendering="crispEdges"/><rect fill="#272727" x="597.8" y="147.9" width="85.4" height="24.65" shape-rendering="crispEdges"/><rect fill="#272727" x="683.2" y="147.9" width="12.2" height="24.65" shape-rendering="crispEdges"/><rect fill="#272727" x="695.4" y="147.9" width="24.4" height="24.65" shape-rendering="crispEdges"/><rect fill="#272727" x="719.8" y="147.9" width="97.6" height="24.65" shape-rendering="crispEdges"/><rect fill="#272727" x="817.4" y="147.9" width="122" height="24.65" shape-rendering="crispEdges"/><rect fill="#272727" x="939.4" y="147.9" width="463.6" height="24.65" shape-rendering="crispEdges"/><rect fill="#272727" x="1403" y="147.9" width="61" height="24.65" shape-rendering="crispEdges"/><rect fill="#272727" x="0" y="172.3" width="1464" height="24.65" shape-rendering="crispEdges"/><rect fill="#272727" x="0" y="196.7" width="1464" height="24.65" shape-rendering="crispEdges"/><rect fill="#272727" x="0" y="221.1" width="1464" height="24.65" shape-rendering="crispEdges"/><rect fill="#121212" x="0" y="245.5" width="1464" height="24.65" shape-rendering="crispEdges"/><rect fill="#121212" x="0" y="269.9" width="1464" height="24.65" shape-rendering="crispEdges"/><rect fill="#121212" x="0" y="294.3" width="1464" height="24.65" shape-rendering="crispEdges"/><rect fill="#121212" x="0" y="318.7" width="1464" height="24.65" shape-rendering="crispEdges"/><rect fill="#121212" x="0" y="343.1" width="1464" height="24.65" shape-rendering="crispEdges"/><rect fill="#121212" x="0" y="367.5" width="1464" height="24.65" shape-rendering="crispEdges"/><rect fill="#121212" x="0" y="391.9" width="1464" height="24.65" shape-rendering="crispEdges"/><rect fill="#121212" x="0" y="416.3" width="1464" height="24.65" shape-rendering="crispEdges"/><rect fill="#121212" x="0" y="440.7" width="1464" height="24.65" shape-rendering="crispEdges"/><rect fill="#121212" x="0" y="465.1" width="1464" height="24.65" shape-rendering="crispEdges"/><rect fill="#121212" x="0" y="489.5" width="719.8" height="24.65" shape-rendering="crispEdges"/><rect fill="#343f49" x="719.8" y="489.5" width="12.2" height="24.65" shape-rendering="crispEdges"/><rect fill="#343f49" x="732" y="489.5" width="707.6" height="24.65" shape-rendering="crispEdges"/><rect fill="#121212" x="1439.6" y="489.5" width="24.4" height="24.65" shape-rendering="crispEdges"/><rect fill="#121212" x="0" y="513.9" width="719.8" height="24.65" shape-rendering="crispEdges"/><rect fill="#343f49" x="719.8" y="513.9" width="12.2" height="24.65" shape-rendering="crispEdges"/><rect fill="#343f49" x="732" y="513.9" width="12.2" height="24.65" shape-rendering="crispEdges"/><rect fill="#343f49" x="744.2" y="513.9" width="231.8" height="24.65" shape-rendering="crispEdges"/><rect fill="#343f49" x="976" y="513.9" width="451.4" height="24.65" shape-rendering="crispEdges"/><rect fill="#343f49" x="1427.4" y="513.9" width="12.2" height="24.65" shape-rendering="crispEdges"/><rect fill="#121212" x="1439.6" y="513.9" width="24.4" height="24.65" shape-rendering="crispEdges"/><rect fill="#121212" x="0" y="538.3" width="719.8" height="24.65" shape-rendering="crispEdges"/><rect fill="#343f49" x="719.8" y="538.3" width="12.2" height="24.65" shape-rendering="crispEdges"/><rect fill="#343f49" x="732" y="538.3" width="12.2" height="24.65" shape-rendering="crispEdges"/><rect fill="#343f49" x="744.2" y="538.3" width="268.4" height="24.65" shape-rendering="crispEdges"/><rect fill="#343f49" x="1012.6" y="538.3" width="414.8" height="24.65" shape-rendering="crispEdges"/><rect fill="#343f49" x="1427.4" y="538.3" width="12.2" height="24.65" shape-rendering="crispEdges"/><rect fill="#121212" x="1439.6" y="538.3" width="24.4" height="24.65" shape-rendering="crispEdges"/><rect fill="#121212" x="0" y="562.7" width="719.8" height="24.65" shape-rendering="crispEdges"/><rect fill="#343f49" x="719.8" y="562.7" width="12.2" height="24.65" shape-rendering="crispEdges"/><rect fill="#343f49" x="732" y="562.7" width="707.6" height="24.65" shape-rendering="crispEdges"/><rect fill="#121212" x="1439.6" y="562.7" width="24.4" height="24.65" shape-rendering="crispEdges"/><rect fill="#121212" x="0" y="587.1" width="1464" height="24.65" shape-rendering="crispEdges"/><rect fill="#121212" x="0" y="611.5" width="719.8" height="24.65" shape-rendering="crispEdges"/><rect fill="#343f49" x="719.8" y="611.5" width="12.2" height="24.65" shape-rendering="crispEdges"/><rect fill="#343f49" x="732" y="611.5" width="707.6" height="24.65" shape-rendering="crispEdges"/><rect fill="#121212" x="1439.6" y="611.5" width="24.4" height="24.65" shape-rendering="crispEdges"/><rect fill="#121212" x="0" y="635.9" width="719.8" height="24.65" shape-rendering="crispEdges"/><rect fill="#343f49" x="719.8" y="635.9" width="12.2" height="24.65" shape-rendering="crispEdges"/><rect fill="#343f49" x="732" y="635.9" width="12.2" height="24.65" shape-rendering="crispEdges"/><rect fill="#343f49" x="744.2" y="635.9" width="451.4" height="24.65" shape-rendering="crispEdges"/><rect fill="#343f49" x="1195.6" y="635.9" width="231.8" height="24.65" shape-rendering="crispEdges"/><rect fill="#343f49" x="1427.4" y="635.9" width="12.2" height="24.65" shape-rendering="crispEdges"/><rect fill="#121212" x="1439.6" y="635.9" width="24.4" height="24.65" shape-rendering="crispEdges"/><rect fill="#121212" x="0" y="660.3" width="719.8" height="24.65" shape-rendering="crispEdges"/><rect fill="#343f49" x="719.8" y="660.3" width="12.2" height="24.65" shape-rendering="crispEdges"/><rect fill="#343f49" x="732" y="660.3" width="707.6" height="24.65" shape-rendering="crispEdges"/><rect fill="#121212" x="1439.6" y="660.3" width="24.4" height="24.65" shape-rendering="crispEdges"/><rect fill="#242f38" x="0" y="684.7" width="36.6" height="24.65" shape-rendering="crispEdges"/><rect fill="#242f38" x="36.6" y="684.7" width="207.4" height="24.65" shape-rendering="crispEdges"/><rect fill="#242f38" x="244" y="684.7" width="36.6" height="24.65" shape-rendering="crispEdges"/><rect fill="#242f38" x="280.6" y="684.7" width="61" height="24.65" shape-rendering="crispEdges"/><rect fill="#242f38" x="341.6" y="684.7" width="36.6" height="24.65" shape-rendering="crispEdges"/><rect fill="#242f38" x="378.2" y="684.7" width="85.4" height="24.65" shape-rendering="crispEdges"/><rect fill="#242f38" x="463.6" y="684.7" width="36.6" height="24.65" shape-rendering="crispEdges"/><rect fill="#242f38" x="500.2" y="684.7" width="73.2" height="24.65" shape-rendering="crispEdges"/><rect fill="#242f38" x="573.4" y="684.7" width="744.2" height="24.65" shape-rendering="crispEdges"/><rect fill="#242f38" x="1317.6" y="684.7" width="12.2" height="24.65" shape-rendering="crispEdges"/><rect fill="#242f38" x="1329.8" y="684.7" width="24.4" height="24.65" shape-rendering="crispEdges"/><rect fill="#242f38" x="1354.2" y="684.7" width="97.6" height="24.65" shape-rendering="crispEdges"/><rect fill="#242f38" x="1451.8" y="684.7" width="12.2" height="24.65" shape-rendering="crispEdges"/>
    <g class="terminal-3837218806-matrix">
    <text class="terminal-3837218806-r1" x="402.6" y="20" textLength="134.2" clip-path="url(#terminal-3837218806-line-0)">&#160;Installed&#160;</text><text class="terminal-3837218806-r1" x="536.8" y="20" textLength="146.4" clip-path="url(#terminal-3837218806-line-0)">&#160;Auto&#160;Start&#160;</text><text class="terminal-3837218806-r1" x="683.2" y="20" textLength="134.2" clip-path="url(#terminal-3837218806-line-0)">&#160;&#160;Current&#160;&#160;</text><text class="terminal-3837218806-r1" x="817.4" y="20" textLength="122" clip-path="url(#terminal-3837218806-line-0)">&#160;&#160;Latest&#160;&#160;</text><text class="terminal-3837218806-r1" x="939.4" y="20" textLength="463.6" clip-path="url(#terminal-3837218806-line-0)">&#160;Description&#160;&#160;&#160;&#160;&#160;&#160;&#160;&#160;&#160;&#160;&#160;&#160;&#160;&#160;&#160;&#160;&#160;&#160;&#160;&#160;&#160;&#160;&#160;&#160;&#160;&#160;</text><text class="terminal-3837218806-r2" x="1464" y="20" textLength="12.2" clip-path="url(#terminal-3837218806-line-0)">
</text><text class="terminal-3837218806-r1" x="0" y="44.4" textLength="402.6" clip-path="url(#terminal-3837218806-line-1)">&#160;kkots/ggxrd_hitbox_overlay_2211&#160;</text><text class="terminal-3837218806-r4" x="414.8" y="44.4" textLength="48.8" clip-path="url(#terminal-3837218806-line-1)">True</text><text class="terminal-3837218806-r5" x="549" y="44.4" textLength="24.4" clip-path="url(#terminal-3837218806-line-1)">No</text><text class="terminal-3837218806-r6" x="695.4" y="44.4" textLength="48.8" clip-path="url(#terminal-3837218806-line-1)">7.26</text><text class="terminal-3837218806-r3" x="817.4" y="44.4" textLength="122" clip-path="url(#terminal-3837218806-line-1)">&#160;7.26&#160;&#160;&#160;&#160;&#160;</text><text class="terminal-3837218806-r3" x="939.4" y="44.4" textLength="463.6" clip-path="url(#terminal-3837218806-line-1)">&#160;Hitbox/framedata&#160;viewer&#160;mod&#160;&#160;&#160;&#160;&#160;&#160;&#160;&#160;&#160;&#160;</text><text class="terminal-3837218806-r2" x="1464" y="44.4" textLength="12.2" clip-path="url(#terminal-3837218806-line-1)">
</text><text class="terminal-3837218806-r1" x="0" y="68.8" textLength="402.6" clip-path="url(#terminal-3837218806-line-2)">&#160;kkots/rev2-wakeup-tool&#160;&#160;&#160;&#160;&#160;&#160;&#160;&#160;&#160;&#160;</text><text class="terminal-3837218806-r4" x="414.8" y="68.8" textLength="48.8" clip-path="url(#terminal-3837218806-line-2)">True</text><text class="terminal-3837218806-r5" x="549" y="68.8" textLength="24.4" clip-path="url(#terminal-3837218806-line-2)">No</text><text class="terminal-3837218806-r4" x="695.4" y="68.8" textLength="61" clip-path="url(#terminal-3837218806-line-2)">fork7</text><text class="terminal-3837218806-r7" x="817.4" y="68.8" textLength="122" clip-path="url(#terminal-3837218806-line-2)">&#160;fork7&#160;&#160;&#160;&#160;</text><text class="terminal-3837218806-r2" x="1464" y="68.8" textLength="12.2" clip-path="url(#terminal-3837218806-line-2)">
</text><text class="terminal-3837218806-r1" x="0" y="93.2" textLength="402.6" clip-path="url(#terminal-3837218806-line-3)">&#160;Microsoft/.Net&#160;6&#160;&#160;&#160;&#160;&#160;&#160;&#160;&#160;&#160;&#160;&#160;&#160;&#160;&#160;&#160;&#160;</text><text class="terminal-3837218806-r4" x="414.8" y="93.2" textLength="48.8" clip-path="url(#terminal-3837218806-line-3)">True</text><text class="terminal-3837218806-r4" x="549" y="93.2" textLength="48.8" clip-path="url(#terminal-3837218806-line-3)">True</text><text class="terminal-3837218806-r6" x="695.4" y="93.2" textLength="73.2" clip-path="url(#terminal-3837218806-line-3)">6.0.36</text><text class="terminal-3837218806-r3" x="817.4" y="93.2" textLength="122" clip-path="url(#terminal-3837218806-line-3)">&#160;6.0.X&#160;&#160;&#160;&#160;</text><text class="terminal-3837218806-r3" x="939.4" y="93.2" textLength="463.6" clip-path="url(#terminal-3837218806-line-3)">&#160;Required&#160;to&#160;launch&#160;the&#160;Reversal&#160;Tool&#160;</text><text class="terminal-3837218806-r2" x="1464" y="93.2" textLength="12.2" clip-path="url(#terminal-3837218806-line-3)">
</text><text class="terminal-3837218806-r1" x="0" y="117.6" textLength="402.6" clip-path="url(#terminal-3837218806-line-4)">&#160;ibrow19/GGXrdReplayTakeover&#160;&#160;&#160;&#160;&#160;</text><text class="terminal-3837218806-r4" x="414.8" y="117.6" textLength="48.8" clip-path="url(#terminal-3837218806-line-4)">True</text><text class="terminal-3837218806-r5" x="549" y="117.6" textLength="24.4" clip-path="url(#terminal-3837218806-line-4)">No</text><text class="terminal-3837218806-r6" x="695.4" y="117.6" textLength="73.2" clip-path="url(#terminal-3837218806-line-4)">v0.2.3</text><text class="terminal-3837218806-r3" x="817.4" y="117.6" textLength="122" clip-path="url(#terminal-3837218806-line-4)">&#160;v0.2.3&#160;&#160;&#160;</text><text class="terminal-3837218806-r2" x="1464" y="117.6" textLength="12.2" clip-path="url(#terminal-3837218806-line-4)">
</text><text class="terminal-3837218806-r1" x="0" y="142" textLength="402.6" clip-path="url(#terminal-3837218806-line-5)">&#160;Microsoft/VsCppRedist_x64&#160;&#160;&#160;&#160;&#160;&#160;&#160;</text><text class="terminal-3837218806-r4" x="414.8" y="142" textLength="48.8" clip-path="url(#terminal-3837218806-line-5)">True</text><text class="terminal-3837218806-r4" x="549" y="142" textLength="48.8" clip-path="url(#terminal-3837218806-line-5)">True</text><text class="terminal-3837218806-r6" x="695.4" y="142" textLength="24.4" clip-path="url(#terminal-3837218806-line-5)">14</text><text class="terminal-3837218806-r3" x="817.4" y="142" textLength="122" clip-path="url(#terminal-3837218806-line-5)">&#160;14&#160;&#160;&#160;&#160;&#160;&#160;&#160;</text><text class="terminal-3837218806-r3" x="939.4" y="142" textLength="463.6" clip-path="url(#terminal-3837218806-line-5)">&#160;Required&#160;to&#160;launch&#160;most&#160;mods.&#160;&#160;&#160;&#160;&#160;&#160;&#160;&#160;</text><text class="terminal-3837218806-r2" x="1464" y="142" textLength="12.2" clip-path="url(#terminal-3837218806-line-5)">
</text><text class="terminal-3837218806-r1" x="0" y="166.4" textLength="402.6" clip-path="url(#terminal-3837218806-line-6)">&#160;Microsoft/VsCppRedist_x86&#160;&#160;&#160;&#160;&#160;&#160;&#160;</text><text class="terminal-3837218806-r4" x="414.8" y="166.4" textLength="48.8" clip-path="url(#terminal-3837218806-line-6)">True</text><text class="terminal-3837218806-r4" x="549" y="166.4" textLength="48.8" clip-path="url(#terminal-3837218806-line-6)">True</text><text class="terminal-3837218806-r6" x="695.4" y="166.4" textLength="24.4" clip-path="url(#terminal-3837218806-line-6)">14</text><text class="terminal-3837218806-r3" x="817.4" y="166.4" textLength="122" clip-path="url(#terminal-3837218806-line-6)">&#160;14&#160;&#160;&#160;&#160;&#160;&#160;&#160;</text><text class="terminal-3837218806-r3" x="939.4" y="166.4" textLength="463.6" clip-path="url(#terminal-3837218806-line-6)">&#160;Required&#160;to&#160;launch&#160;most&#160;mods.&#160;&#160;&#160;&#160;&#160;&#160;&#160;&#160;</text><text class="terminal-3837218806-r2" x="1464" y="166.4" textLength="12.2" clip-path="url(#terminal-3837218806-line-6)">
</text><text class="terminal-3837218806-r2" x="1464" y="190.8" textLength="12.2" clip-path="url(#terminal-3837218806-line-7)">
</text><text class="terminal-3837218806-r2" x="1464" y="215.2" textLength="12.2" clip-path="url(#terminal-3837218806-line-8)">
</text><text class="terminal-3837218806-r2" x="1464" y="239.6" textLength="12.2" clip-path="url(#terminal-3837218806-line-9)">
</text><text class="terminal-3837218806-r2" x="1464" y="264" textLength="12.2" clip-path="url(#terminal-3837218806-line-10)">
</text><text class="terminal-3837218806-r2" x="1464" y="288.4" textLength="12.2" clip-path="url(#terminal-3837218806-line-11)">
</text><text class="terminal-3837218806-r2" x="1464" y="312.8" textLength="12.2" clip-path="url(#terminal-3837218806-line-12)">
</text><text class="terminal-3837218806-r2" x="1464" y="337.2" textLength="12.2" clip-path="url(#terminal-3837218806-line-13)">
</text><text class="terminal-3837218806-r2" x="1464" y="361.6" textLength="12.2" clip-path="url(#terminal-3837218806-line-14)">
</text><text class="terminal-3837218806-r2" x="1464" y="386" textLength="12.2" clip-path="url(#terminal-3837218806-line-15)">
</text><text class="terminal-3837218806-r2" x="1464" y="410.4" textLength="12.2" clip-path="url(#terminal-3837218806-line-16)">
</text><text class="terminal-3837218806-r2" x="1464" y="434.8" textLength="12.2" clip-path="url(#terminal-3837218806-line-17)">
</text><text class="terminal-3837218806-r2" x="1464" y="459.2" textLength="12.2" clip-path="url(#terminal-3837218806-line-18)">
</text><text class="terminal-3837218806-r2" x="1464" y="483.6" textLength="12.2" clip-path="url(#terminal-3837218806-line-19)">
</text><text class="terminal-3837218806-r8" x="719.8" y="508" textLength="12.2" clip-path="url(#terminal-3837218806-line-20)">▌</text><text class="terminal-3837218806-r2" x="1464" y="508" textLength="12.2" clip-path="url(#terminal-3837218806-line-20)">
</text><text class="terminal-3837218806-r8" x="719.8" y="532.4" textLength="12.2" clip-path="url(#terminal-3837218806-line-21)">▌</text><text class="terminal-3837218806-r3" x="744.2" y="532.4" textLength="231.8" clip-path="url(#terminal-3837218806-line-21)">Download&#160;completed.</text><text class="terminal-3837218806-r2" x="1464" y="532.4" textLength="12.2" clip-path="url(#terminal-3837218806-line-21)">
</text><text class="terminal-3837218806-r8" x="719.8" y="556.8" textLength="12.2" clip-path="url(#terminal-3837218806-line-22)">▌</text><text class="terminal-3837218806-r3" x="744.2" y="556.8" textLength="268.4" clip-path="url(#terminal-3837218806-line-22)">Starting&#160;install&#160;step.</text><text class="terminal-3837218806-r2" x="1464" y="556.8" textLength="12.2" clip-path="url(#terminal-3837218806-line-22)">
</text><text class="terminal-3837218806-r8" x="719.8" y="581.2" textLength="12.2" clip-path="url(#terminal-3837218806-line-23)">▌</text><text class="terminal-3837218806-r2" x="1464" y="581.2" textLength="12.2" clip-path="url(#terminal-3837218806-line-23)">
</text><text class="terminal-3837218806-r2" x="1464" y="605.6" textLength="12.2" clip-path="url(#terminal-3837218806-line-24)">
</text><text class="terminal-3837218806-r8" x="719.8" y="630" textLength="12.2" clip-path="url(#terminal-3837218806-line-25)">▌</text><text class="terminal-3837218806-r2" x="1464" y="630" textLength="12.2" clip-path="url(#terminal-3837218806-line-25)">
</text><text class="terminal-3837218806-r8" x="719.8" y="654.4" textLength="12.2" clip-path="url(#terminal-3837218806-line-26)">▌</text><text class="terminal-3837218806-r3" x="744.2" y="654.4" textLength="451.4" clip-path="url(#terminal-3837218806-line-26)">Mod&#160;kkots/rev2-wakeup-tool&#160;installed.</text><text class="terminal-3837218806-r2" x="1464" y="654.4" textLength="12.2" clip-path="url(#terminal-3837218806-line-26)">
</text><text class="terminal-3837218806-r8" x="719.8" y="678.8" textLength="12.2" clip-path="url(#terminal-3837218806-line-27)">▌</text><text class="terminal-3837218806-r2" x="1464" y="678.8" textLength="12.2" clip-path="url(#terminal-3837218806-line-27)">
</text><text class="terminal-3837218806-r9" x="0" y="703.2" textLength="36.6" clip-path="url(#terminal-3837218806-line-28)">&#160;u&#160;</text><text class="terminal-3837218806-r3" x="36.6" y="703.2" textLength="207.4" clip-path="url(#terminal-3837218806-line-28)">update_to_latest&#160;</text><text class="terminal-3837218806-r9" x="244" y="703.2" textLength="36.6" clip-path="url(#terminal-3837218806-line-28)">&#160;s&#160;</text><text class="terminal-3837218806-r3" x="280.6" y="703.2" textLength="61" clip-path="url(#terminal-3837218806-line-28)">save&#160;</text><text class="terminal-3837218806-r9" x="341.6" y="703.2" textLength="36.6" clip-path="url(#terminal-3837218806-line-28)">&#160;l&#160;</text><text class="terminal-3837218806-r3" x="378.2" y="703.2" textLength="85.4" clip-path="url(#terminal-3837218806-line-28)">launch&#160;</text><text class="terminal-3837218806-r9" x="463.6" y="703.2" textLength="36.6" clip-path="url(#terminal-3837218806-line-28)">&#160;p&#160;</text><text class="terminal-3837218806-r3" x="500.2" y="703.2" textLength="73.2" clip-path="url(#terminal-3837218806-line-28)">patch&#160;</text><text class="terminal-3837218806-r10" x="1317.6" y="703.2" textLength="12.2" clip-path="url(#terminal-3837218806-line-28)">▏</text><text class="terminal-3837218806-r9" x="1329.8" y="703.2" textLength="24.4" clip-path="url(#terminal-3837218806-line-28)">^p</text><text class="terminal-3837218806-r3" x="1354.2" y="703.2" textLength="97.6" clip-path="url(#terminal-3837218806-line-28)">&#160;palette</text>
    </g>
    </g>
</svg>
